<svg height="512" viewBox="0 0 64 64" width="512" xmlns="http://www.w3.org/2000/svg">
	<style>path {fill:white;}</style>
	<g id="outline"><path d="m6 6h2v2h-2z"/><path d="m10 6h2v2h-2z"/><path d="m14 6h2v2h-2z"/><path d="m2 2v60h60v-60zm2 2h14v6h-14zm56 56h-56v-48h56zm0-50h-40v-6h40z"/><path d="m17 24v.294a7 7 0 0 0 2 13.706h28a6 6 0 1 0 -1.228-11.873 7.973 7.973 0 0 0 -8.639-6.078c-.029 0-.62.091-.88.149h-.006a10 10 0 0 0 -19.247 3.802zm10-8a8.035 8.035 0 0 1 7.343 4.893 8 8 0 0 0 -4.343 7.107h2a6.006 6.006 0 0 1 3.961-5.636 6.125 6.125 0 0 1 .986-.266c.024 0 .725-.1 1.052-.1a6.026 6.026 0 0 1 5.886 4.881 6 6 0 0 0 -2.885 5.121h2a4 4 0 0 1 2.376-3.648 3.954 3.954 0 0 1 1.624-.352 4 4 0 0 1 0 8h-28a5 5 0 0 1 -.775-9.933s.517-.067.775-.067a5.01 5.01 0 0 1 4.716 3.333l1.886-.666a7.012 7.012 0 0 0 -6.602-4.667 8.009 8.009 0 0 1 8-8z"/><path d="m24.707 40.293a1 1 0 0 0 -1.414 0l-7 7a1 1 0 0 0 .707 1.707h3v8a1 1 0 0 0 1 1h6a1 1 0 0 0 1-1v-8h3a1 1 0 0 0 .707-1.707zm2.293 6.707a1 1 0 0 0 -1 1v8h-4v-8a1 1 0 0 0 -1-1h-1.586l4.586-4.586 4.586 4.586z"/><path d="m47 49h-3v-8a1 1 0 0 0 -1-1h-6a1 1 0 0 0 -1 1v8h-3a1 1 0 0 0 -.707 1.707l7 7a1 1 0 0 0 1.414 0l7-7a1 1 0 0 0 -.707-1.707zm-7 6.586-4.586-4.586h1.586a1 1 0 0 0 1-1v-8h4v8a1 1 0 0 0 1 1h1.586z"/><path d="m31 31h2v2h-2z"/><path d="m35 31h2v2h-2z"/><path d="m27 31h2v2h-2z"/><path d="m58 49h-2v7h-2v2h4z"/><path d="m50 56h2v2h-2z"/><path d="m6 21h2v-5h3v-2h-5z"/></g></svg>